<svg id="logo" xmlns="http://www.w3.org/2000/svg" viewBox="0 0 179.99 179.99"><defs><style>.cls-1{fill:#00b9ac;}.cls-2{fill:#48515e;}.cls-3{fill:#3290b8;}</style></defs><title>logo</title><circle class="cls-1" cx="90" cy="90" r="90"/><circle class="cls-2" cx="90" cy="90" r="71.29"/><path class="cls-3" d="M695.26,162c0,24-11.87,40.8-31,47.92-1,.59-0.59,1.63,1.33,3.41,9.5,8.9,20.92,18.4,32.2,21.36a48.83,48.83,0,0,0,11.13,1.19,18.68,18.68,0,0,0,6.38-1.19,2.92,2.92,0,0,1,1.34,3.56c-5.49,3.86-13.95,5.49-21.22,5.49-21.36,0-39.76-11.28-53.56-25.52-2.82-3-4.3-4.75-7.86-5-24.33-2.08-43.77-21.07-43.77-50.15,0-29.38,22-52.07,53-52.07S695.26,131.58,695.26,162ZM614,159.62c0,18.1,6.38,47.33,30.56,47.33,19.43,0,27-19.14,27-43.17,0-25.37-11.13-46-29.52-46S614,134.84,614,159.62Z" transform="translate(-553.8 -72.58)"/></svg>