<svg id="social" xmlns="http://www.w3.org/2000/svg" viewBox="0 0 263.11 58.26"><defs><style>.cls-1{fill:#48515e;}.cls-2{fill:#fff;}.cls-3{fill:#f1f2f2;}</style></defs><title>social</title><path class="cls-1" d="M572,1157.84A26.88,26.88,0,1,1,545.14,1131,26.88,26.88,0,0,1,572,1157.84h0Zm0,0" transform="translate(-518.26 -1127.37)"/><path class="cls-2" d="M561.61,1150.28a12.84,12.84,0,0,1-3.69,1,6.46,6.46,0,0,0,2.83-3.55,12.92,12.92,0,0,1-4.08,1.56,6.43,6.43,0,0,0-11,5.86,18.24,18.24,0,0,1-13.24-6.72,6.44,6.44,0,0,0,2,8.58,6.39,6.39,0,0,1-2.91-.81v0.08a6.43,6.43,0,0,0,5.15,6.3,6.42,6.42,0,0,1-2.9.11,6.43,6.43,0,0,0,6,4.46,13,13,0,0,1-9.51,2.66,18.18,18.18,0,0,0,9.85,2.89c11.82,0,18.28-9.79,18.28-18.28,0-.28,0-0.55,0-0.83a13,13,0,0,0,3.21-3.33h0Zm0,0" transform="translate(-518.26 -1127.37)"/><path class="cls-1" d="M639.71,1158.74a26.88,26.88,0,1,1-26.88-26.88,26.88,26.88,0,0,1,26.88,26.88h0Zm0,0" transform="translate(-518.26 -1127.37)"/><path class="cls-3" d="M628.89,1160.91V1172h-6.42v-10.34c0-2.6-.93-4.37-3.25-4.37a3.52,3.52,0,0,0-3.29,2.35,4.35,4.35,0,0,0-.21,1.57V1172h-6.43s0.09-17.51,0-19.33h6.43v2.74l0,0.06h0v-0.06a6.38,6.38,0,0,1,5.79-3.19c4.23,0,7.4,2.76,7.4,8.7h0Zm-26.33-17.56a3.35,3.35,0,1,0-.08,6.68h0a3.35,3.35,0,1,0,0-6.68h0ZM599.3,1172h6.42v-19.33H599.3V1172Zm0,0" transform="translate(-518.26 -1127.37)"/><path class="cls-1" d="M711.59,1156a26.88,26.88,0,1,1-26.88-26.88A26.88,26.88,0,0,1,711.59,1156h0Zm0,0" transform="translate(-518.26 -1127.37)"/><path class="cls-3" d="M665.83,1162.15a0.16,0.16,0,0,1-.31,0l-0.28-2.13,0.28-2.16a0.16,0.16,0,0,1,.16-0.15,0.17,0.17,0,0,1,.16.15l0.34,2.16Zm1.45,1.29a0.17,0.17,0,0,1-.16.16,0.17,0.17,0,0,1-.16-0.16l-0.38-3.42,0.38-3.5a0.17,0.17,0,0,1,.16-0.16,0.17,0.17,0,0,1,.16.16l0.44,3.5Zm1.56,0.58a0.2,0.2,0,0,1-.39,0l-0.36-4,0.36-4.15a0.2,0.2,0,0,1,.39,0l0.41,4.15Zm1.58,0.13a0.24,0.24,0,0,1-.23.22,0.24,0.24,0,0,1-.23-0.22l-0.34-4.13,0.34-4.26a0.23,0.23,0,0,1,.23-0.22,0.24,0.24,0,0,1,.23.22l0.39,4.26Zm1.59,0a0.26,0.26,0,0,1-.52,0l-0.33-4.16,0.33-4a0.26,0.26,0,0,1,.52,0l0.37,4Zm1.6,0h0a0.3,0.3,0,0,1-.59,0l-0.3-4.16,0.3-6.43a0.3,0.3,0,0,1,.59,0l0.34,6.44Zm1.59,0h0a0.33,0.33,0,0,1-.66,0l-0.29-4.13,0.29-7.91a0.33,0.33,0,0,1,.66,0l0.32,7.91Zm1.65-.06h0a0.36,0.36,0,0,1-.72,0l-0.26-4.09,0.26-8.57a0.36,0.36,0,0,1,.72,0l0.3,8.57Zm1.64,0a0.39,0.39,0,0,1-.79,0l-0.25-4.06,0.25-8.85a0.39,0.39,0,0,1,.79,0l0.27,8.85Zm1.65,0h0a0.43,0.43,0,0,1-.85,0l-0.23-4,0.22-8.63a0.43,0.43,0,1,1,.86,0l0.26,8.63Zm1.66,0h0a0.46,0.46,0,0,1-.92,0l-0.21-4,0.21-8.31a0.46,0.46,0,0,1,.92,0L682,1160Zm1.7-.42,0,0.39a0.52,0.52,0,0,1-.15.35,0.49,0.49,0,0,1-.84-0.33v0l-0.19-4,0.19-9.8v-0.09a0.49,0.49,0,0,1,.23-0.41,0.48,0.48,0,0,1,.54,0,0.5,0.5,0,0,1,.22.41l0.21,9.9Zm1.65,0.34h0a0.53,0.53,0,0,1-1.05,0L684,1162l-0.11-2,0.22-10.74v-0.05a0.53,0.53,0,0,1,.2-0.41,0.52,0.52,0,0,1,.6,0,0.55,0.55,0,0,1,.26.45l0.23,10.79Zm14.25,0.53H686.11a0.57,0.57,0,0,1-.52-0.55v-15.2a0.55,0.55,0,0,1,.46-0.56,8.46,8.46,0,0,1,11.48,7.13,4.78,4.78,0,1,1,1.85,9.19h0Zm0,0" transform="translate(-518.26 -1127.37)"/><path class="cls-1" d="M781.37,1154.25a26.88,26.88,0,1,1-26.88-26.88,26.88,26.88,0,0,1,26.88,26.88h0Zm0,0" transform="translate(-518.26 -1127.37)"/><path class="cls-3" d="M755.49,1145.6v-7.22h-4.66a2.51,2.51,0,0,0-.16.91,1.35,1.35,0,0,0-.11.43,7,7,0,0,1-4.23,5.56,3.92,3.92,0,0,1-2,.32v5.82h3.42c0.06,8.19.06,12.41,0.06,12.63v0.49c0.43,3.57,2.3,5.71,5.62,6.52a15.93,15.93,0,0,0,4.22.54,19.94,19.94,0,0,0,5.51-1v-6.85c-1.06.32-2,.59-2.89,0.86a4,4,0,0,1-4.17-.91,2.21,2.21,0,0,1-.32-0.59,14.87,14.87,0,0,1-.26-2.62v-9.1h7.43v-5.82h-7.43Zm0,0" transform="translate(-518.26 -1127.37)"/></svg>