<svg id="Layer_1" data-name="Layer 1" xmlns="http://www.w3.org/2000/svg" viewBox="0 0 540.3 355.86"><defs><style>.cls-1,.cls-3{fill:#fff;}.cls-1,.cls-2{opacity:0.4;}</style></defs><title>symbol1</title><path class="cls-1" d="M233.63,48.38A35,35,0,0,0,248.56,24H236.15c-2,10-11.23,18.41-22.27,18.41S193.61,34,191.61,24H179.2a35,35,0,0,0,14.93,24.38A35,35,0,1,0,233.63,48.38ZM213.88,99.71A22.68,22.68,0,1,1,236.56,77,22.71,22.71,0,0,1,213.88,99.71Z" transform="translate(-16.7 -20.19)"/><path class="cls-1" d="M390,35.86V23.42a202.47,202.47,0,0,1-35.46,3,202.26,202.26,0,0,1-35.54-3V35.85c5,0.76,9,1.37,14,1.82V90.6c-5,.46-9,1.06-14,1.82v12.44a210.66,210.66,0,0,1,71,0V92.43c-3-.74-9-1.33-13-1.78v-53C381,37.18,387,36.6,390,35.86ZM365,89.8c-4-.14-6.49-0.22-9.81-0.22-3.11,0-6.19.06-9.19,0.19V38.51c3,0.13,6.14.19,9.27,0.19,3.29,0,5.73-.08,9.73-0.21V89.8Z" transform="translate(-16.7 -20.19)"/><g class="cls-2"><path class="cls-3" d="M488.67,89.87A20.72,20.72,0,1,0,451.7,77h0c0,0.27,0,.56,0,0.87A20.74,20.74,0,0,0,462.08,95c7.48,4.91,18.86,7.4,33.72,7.4a82.19,82.19,0,0,0,44.19-13V74.17c-7,5.45-21.86,15.93-44.19,15.93C493.33,90.1,490.9,90,488.67,89.87Zm-16.25-4.39a8.39,8.39,0,0,1-3.85-.94c-2.73-1.86-4.31-4.13-4.56-6.74,0-.26,0-0.51,0-0.77A8.45,8.45,0,1,1,472.43,85.48Z" transform="translate(-16.7 -20.19)"/><path class="cls-3" d="M541,52.14a20.73,20.73,0,0,0-10.36-17.08c-7.48-4.91-18.71-7.4-33.58-7.4-19.51,0-35,6.76-44,13V55.87c7-5.45,21.72-15.93,44-15.93,2.48,0,4.8.08,7,.23a20.68,20.68,0,0,0,16.22,33.56A20.39,20.39,0,0,0,541,53h0S541,52.45,541,52.14Zm-20.7,9.32a8.45,8.45,0,1,1,3.85-16c2.73,1.86,4.31,4.13,4.56,6.74,0,0.26,0,.51,0,0.77A8.46,8.46,0,0,1,520.28,61.46Z" transform="translate(-16.7 -20.19)"/></g><path class="cls-1" d="M114.37,223.09c-4,3.43-8.16,5.33-12,5.47-4.26.14-8.24-1.76-11.85-5.67-7.38-8-4.76-15.33.5-27.62,2.92-6.8,5.93-13.84,5.93-21.31,0-20.56-17.55-28-29.35-28a28.57,28.57,0,0,0-21.32,10c-4.6,5.36-6.72,11.89-5.8,17.94,1.32,8.74,4.53,14.14,7.11,18.49,2.48,4.17,4.27,7.19,4.27,12.57C51.83,211.25,48,215,41.69,215a10,10,0,0,1-10.41-9.61c0-4.37.74-7.29,2.19-8.69a4.63,4.63,0,0,1,1-.71L22.9,190.25C20.3,194,19,199,19,205.44a21,21,0,0,0,7.71,16.51,23.94,23.94,0,0,0,15,5.37c13.2,0,22.41-9.22,22.41-22.41,0-8.75-3.18-14.1-6-18.83-2.35-4-4.57-7.7-5.53-14.07-0.37-2.47.74-5.5,3-8.1a16.15,16.15,0,0,1,12-5.7,20.74,20.74,0,0,1,11.13,3.36c4,2.75,5.95,6.8,5.95,12.39,0,5-2.4,10.55-4.94,16.48-5.07,11.84-11.38,26.56,1.76,40.79,5.83,6.31,12.86,9.62,20.4,9.62l0.9,0c8.63-.3,17.1-4.92,24.65-13.4Z" transform="translate(-16.7 -20.19)"/><path class="cls-1" d="M542,187.29l-15,16.54V220h9v2.07c0,5.57-3.6,10.09-8,10.09-4,0-7-4-8-9V175h0.29c0-12-9.34-21.89-20.81-21.89a21.19,21.19,0,0,0-15,6.49,20.22,20.22,0,0,0-29.52-.17,19.58,19.58,0,0,0-14.37-6.31c-1.32,0-3.55.13-3.55,0.38v12.94c0-.66,2.16-1.05,3.55-1.05,4.71,0,8.23,4.61,8.23,9.61H448v49h13V175h0.05c0-5,3.83-9.61,8.54-9.61,4.33,0,7.91,3.63,8.46,8.37,0,0.42,0,.84,0,1.26v49h13V175h-0.6s0-.82,0-1.23a9.48,9.48,0,0,1,9.11-8.38c4.71,0,8.54,4.62,8.54,9.62h0v48h-0.17c0,11,8.89,21.95,20.09,21.95S548,234.4,548,222.07V220h9V203.83Z" transform="translate(-16.7 -20.19)"/><g class="cls-2"><rect class="cls-3" x="289.3" y="193.81" width="99" height="12"/><path class="cls-3" d="M387.21,192s0-.93,0-1.29a31.22,31.22,0,1,0-62.44.05c0,0.36,0,1.23,0,1.23H306v12h38.71a17.44,17.44,0,0,1-6.44-13.72,17.67,17.67,0,1,1,35.33,0,17.4,17.4,0,0,1-6.44,13.7H405V192H387.21Z" transform="translate(-16.7 -20.19)"/></g><g class="cls-2"><path class="cls-3" d="M467,268.83l-8.26,8.89a66.08,66.08,0,0,1,18,38.29H458v13h18.83a66.45,66.45,0,0,1-17.4,38.42l9.09,8.22A76.34,76.34,0,0,0,489.15,329H507.2a76.88,76.88,0,0,0,21,47l8.27-9.08a64.3,64.3,0,0,1-17.18-37.87l19.7,0.28V317.1l-19.65-.27a64.25,64.25,0,0,1,18.2-38.59l-9-8.67A78.11,78.11,0,0,0,507.25,316H489.1A76.54,76.54,0,0,0,467,268.83Z" transform="translate(-16.7 -20.19)"/></g><g class="cls-2"><polygon class="cls-3" points="304.99 286 321.2 302.48 338.68 286.08 354.82 302.48 372.3 286.08 384.24 298.21 392.98 289.6 372.5 268.78 368.13 273.16 355.16 285.33 338.88 268.78 334.51 273.16 321.54 285.33 305.47 268.99 283.02 289.36 291.27 298.45 304.99 286"/><polygon class="cls-3" points="368.13 304.64 355.16 316.81 338.88 300.27 334.51 304.64 321.54 316.81 305.47 300.48 283.02 320.85 291.27 329.93 304.99 317.49 321.2 333.97 338.68 317.56 354.82 333.97 372.3 317.56 384.24 329.69 392.98 321.09 372.5 300.27 368.13 304.64"/></g><path class="cls-1" d="M95.54,20.19A27.44,27.44,0,0,0,74.2,30.39,27.5,27.5,0,0,0,25.32,47.67C25.32,60.5,35,71.29,46,74.31v-13a15.22,15.22,0,0,1,6.84-28.83c7.84,0,15.16,6,15.16,13.6V105H80.25l0.1-56.68c0-.18,0-0.41,0-0.59a15.29,15.29,0,0,1,30.58,0A14.69,14.69,0,0,1,103,61.11V74.22c11-3.14,20.19-13.85,20.19-26.54A27.66,27.66,0,0,0,95.54,20.19Z" transform="translate(-16.7 -20.19)"/><path class="cls-1" d="M222.68,171.33l0.87,2.35a29.6,29.6,0,0,0-1.14,8.32h0.2c0,12,4,25.2,12,37.75,1.07,1.7,2.23,3.49,3.45,5.17-4.21,4.82-9.08,9.08-14.56,14.08h18.27c1.42-2,2.8-2.88,4.12-4.34,1.32,1.46,2.7,2.34,4.12,4.34h18.3a183.65,183.65,0,0,1-14.59-14.21c1.21-1.68,2.37-3.49,3.44-5.18,7.94-12.56,12-25.41,12-38.08,0-14.23-10.47-25.86-23.34-25.86a22,22,0,0,0-15,5.95,17.44,17.44,0,0,0-13.33-5.88,20.24,20.24,0,0,0-14.74,6.4,20.09,20.09,0,0,0-29.38,0,20.64,20.64,0,0,0-14.85-6.36,19.09,19.09,0,0,0-4.48.47v13.15a9,9,0,0,1,4.9-1.34,9.53,9.53,0,0,1,9.1,9.56V226h11V177h0.5c0-4,4.06-9.34,8.75-9.34s8.75,4.6,8.75,9.91V226h12V177h-0.09c0-4,3.83-9.34,8.54-9.34C218.32,167.66,221,168,222.68,171.33Zm23.07-3.12c6.1,0,11.07,6,11.07,13.43,0,10.74-3.84,22.18-11,33-7.12-10.82-11-22.67-11-32.67h-0.2C234.69,174,239.65,168.21,245.75,168.21Z" transform="translate(-16.7 -20.19)"/><path class="cls-1" d="M259.15,323.47c-1-.65-2.06-1.35-3.21-2.09-2.54-1.64-5.45-3.51-8.32-5.63a22,22,0,0,0-4.86-43.42A21.69,21.69,0,0,0,221,294h0v0.42c0,0.4,0,.79,0,1.19a32.15,32.15,0,0,0,1.49,8.39H199.72l-6.19,44.27L186.82,306H171.41L154,316.66v14.83l22-14.62L184.37,369H203l7.4-53h19.45c6,7,13.76,11.87,19.47,15.56,1.09,0.7,2.11,1.44,3,2.07,8,5.32,8.61,8.84,8.61,12.83,0,2.67-3.09,9.12-10.41,9.12A21.83,21.83,0,0,1,240,352.94v13.32a38.29,38.29,0,0,0,10.54,1.68c14.71,0,22.62-12.46,22.62-21.41C273.16,336.86,269.15,330.13,259.15,323.47Zm-26-29a9.61,9.61,0,1,1,9.61,9.61A9.62,9.62,0,0,1,233.16,294.42Z" transform="translate(-16.7 -20.19)"/><polygon class="cls-1" points="78.49 250.81 66.36 262.81 87.14 262.81 49.67 300.05 35.22 285.68 26.59 294.38 40.99 308.75 0 349.81 17.37 349.81 49.72 317.35 64.66 332.04 73.29 323.27 58.64 308.54 96.3 271.15 96.3 292.63 108.3 280.21 108.3 250.81 78.49 250.81"/></svg>