<svg xmlns="http://www.w3.org/2000/svg" viewBox="0 0 695.99 245.73"><defs><style>.cls-1{fill:#fff;}</style></defs><title>pvrisLogoWhite</title><g id="Layer_2" data-name="Layer 2"><g id="Layer_1-2" data-name="Layer 1"><path class="cls-1" d="M347.11,245.73H9c-8,0-9-.9-8.94-8.95.13-44,.39-88,.41-132C.43,72.65.14,40.5,0,8.34,0,1.17,1.17,0,8.37,0H683.25C695.57,0,696,.43,696,12.58c0,17.2,0,34.4,0,51.6q-.21,82.54-.46,165.09c0,3.84.58,7.69.3,11.49a5.54,5.54,0,0,1-3,4,23.76,23.76,0,0,1-7.78,1Q516.06,245.75,347.11,245.73Zm1.33-9.08q166.56,0,333.1.08c4.25,0,5.42-1.28,5.41-5.46Q686.79,123.16,687,15c0-4.37-1.36-5.54-5.63-5.54q-332.86.13-665.73,0c-4.51,0-5.65,1.43-5.65,5.77q.18,107.76,0,215.51c0,4.58,1.15,6,5.88,6Q182.13,236.56,348.44,236.65Z"/><path class="cls-1" d="M479.58,39c27.47-3.88,54.84-3.45,82.21-2.33.08.41.16.83.25,1.24-2.09.83-4.12,1.81-6.26,2.45-9.24,2.76-12.46,6.92-12.46,16.49q0,62.16,0,124.31c0,1.36.13,2.72.13,4.08,0,9.21,3.22,15.8,13.46,17.13,1.61.21,3,2,4.52,3-1.68.46-3.37,1.33-5,1.34q-56.64.12-113.27.08c-4.59,0-7.65-2.3-10-6-10.78-16.94-21.46-33.94-32.44-50.74-2.46-3.76-5.95-6.83-9-10.16-.41-.45-1.22-.52-1.85-.76a6.61,6.61,0,0,0-.51,1.76c0,15.6-.16,31.2.1,46.8.12,7.73,4,11.82,12.46,14.77a32.71,32.71,0,0,1,4.79,2.59,38.26,38.26,0,0,1-5.28.72q-37,.07-73.91,0a13.93,13.93,0,0,1-3.11-.7,11.13,11.13,0,0,1,2.56-2.15c13.74-5.61,14.35-6.54,14.4-21.38q.2-57.7.42-115.41a133.49,133.49,0,0,0-.84-14.83c-.45-4-2.14-7.53-6.81-8.11-4.83-.6-7.23,2.55-8.63,6.45q-10.29,28.55-20.37,57.18-16.51,47.1-32.9,94.24c-3.41,9.74-4.79,10.51-15.19,10.07a128,128,0,0,0-13.43,0c-4.88.31-7.5-1.85-9.15-6.28q-11.59-31-23.44-61.94c-11.19-29.38-22.35-58.76-33.69-88.08-3.13-8.09-8.82-13.59-17.78-15.14-1.23-.22-2.3-1.41-3.44-2.14a19.16,19.16,0,0,1,3.54-.66q38.76-.06,77.51,0a15.55,15.55,0,0,1,3.69.91,35.68,35.68,0,0,1-3.3,1.95,19.52,19.52,0,0,1-3,.84c-7.9,2.12-10.73,7-7.93,14.62,8,21.7,16.13,43.33,24.25,65A7.81,7.81,0,0,0,252,122a7.25,7.25,0,0,0,1.2-1.61q11.26-31,22.45-62a36.82,36.82,0,0,0,1.3-4.62c1.56-6.77-.76-10.75-7.41-12.82a18.6,18.6,0,0,1-1.85-.49c-1.75-.74-3.48-1.55-5.21-2.33,1.88-.53,3.76-1.52,5.64-1.53q57.58-.36,115.17-.48c13,0,26.13-.33,39.07.9C444,39,458.83,54.72,461.2,76.44c1.82,16.56-5,29.16-17.65,39.17-3.2,2.52-6.41,5.06-9.44,7.78-.52.47-.63,2.46-.19,2.8,12.21,9.49,18.35,23.38,26.41,35.91,7.61,11.83,15.82,23.27,24,34.68,1.19,1.64,4.21,3.2,5.95,2.82s3.73-3.08,4.16-5.07a72.5,72.5,0,0,0,1.74-15c.14-40.16.08-80.32.08-120.47,0-12.36-2.34-15.49-14.15-19C481.27,39.81,480.43,39.38,479.58,39Zm-175.74,12-2.5-2.95c-.95.87-2.37,1.56-2.77,2.64q-22.45,61.16-44.75,122.36a17,17,0,0,1-1.32,2.45,12.9,12.9,0,0,1-1.44-2.29C238.14,139.18,225.34,105,212.28,71c-2.93-7.65-6.7-15-10.25-22.39-.37-.77-1.86-1-2.84-1.49-.41,1-1.23,2.08-1.15,3A28,28,0,0,0,199.41,57c6.34,17.84,12.68,35.68,19.23,53.45Q235,154.76,251.56,199a15.41,15.41,0,0,0,1.72,2.68,17.82,17.82,0,0,0,1.42-2.65q22.94-66.84,45.75-133.72C302,60.9,302.65,56.19,303.84,51.08Zm219.34,71.48c0-20.47.1-40.94-.07-61.41a85.08,85.08,0,0,0-1.62-13c-.13-.85-1.28-1.54-2-2.3-.66.78-1.78,1.5-1.92,2.37-.84,5-2,9.95-2,14.93q-.24,59.73,0,119.46c0,4.11,1,8.23,1.83,12.29.17.84,1.38,1.47,2.11,2.2.72-.73,1.9-1.36,2.08-2.21a54.29,54.29,0,0,0,1.52-10.39C523.25,163.82,523.18,143.19,523.18,122.56ZM389.72,80.85c0,10.23,0,20.47,0,30.7,0,2.47,1.07,3.48,3.2,2.11,3.6-2.31,7.62-4.38,10.38-7.5,10.28-11.65,11.32-29.28,3-44.22-3.19-5.68-6.9-11-13.2-13.79-2.39-1.06-3.38-.43-3.36,2.23C389.75,60.54,389.71,70.69,389.72,80.85Zm-28.8,77c0,9-.16,17.9.09,26.84a46.11,46.11,0,0,0,1.86,9.78,13.78,13.78,0,0,0,1.95,3.35,17.43,17.43,0,0,0,1.65-3.78,264.26,264.26,0,0,0,2.71-65.64c-.24-3-1.51-3.91-4.44-3.74s-3.88,1.41-3.85,4.19C361,138.55,360.92,148.22,360.92,157.89Zm8.19-73.6c0-9.43.2-18.87-.11-28.29-.1-3.15-1.29-6.32-2.36-9.34-.35-1-1.9-1.53-2.9-2.28-.62,1.15-1.75,2.3-1.77,3.46-.43,22.13-.69,44.26-1.08,66.38-.05,3,1.14,3.92,4,3.91s4.32-.64,4.28-3.87C369,104.27,369.12,94.28,369.11,84.29ZM416,131.67c-.67.42-1.52.75-1.5,1a7.05,7.05,0,0,0,.78,2.8c8.66,14.37,17.23,28.8,26.15,43,3.7,5.9,8.12,11.35,12.34,16.9.41.53,1.78.31,2.71.44,0-.87.18-1.9-.2-2.6-5.18-9.74-10.47-19.41-15.67-29.14-5.95-11.11-12.5-21.78-22-30.33C417.8,133,416.89,132.39,416,131.67Zm9.77-80-1.26,1a4.54,4.54,0,0,0,.3,1.05c11.17,18.84,11,37.42-1.28,55.73a5.34,5.34,0,0,0-.45,1.53c.6,0,1.41.2,1.77-.1,3.7-3.14,8.56-5.69,10.74-9.69,6.86-12.61,6.22-25.8-.5-38.35C432.82,58.63,428.9,55.34,425.75,51.64Z"/><path class="cls-1" d="M77.45,205.89c-12.79,0-25.59,0-38.38,0a11.63,11.63,0,0,1-2.86-.75,11.37,11.37,0,0,1,2.4-1.93c14.46-6,15.12-7,15.12-22.7q0-60.23,0-120.44c0-12.86-1.4-14.8-13.42-19.42C38.75,40,37.42,38.75,36,37.8c1.72-.45,3.45-1.27,5.17-1.28,27.82-.07,55.63-.23,83.45,0,19.52.19,35.65,7.53,46.65,24.3,14.25,21.74,3.48,53.81-21.06,62.18a126.15,126.15,0,0,1-44.07,7c-3.31-.09-4.75,1.13-4.74,4.34q.12,22.9.23,45.79c0,2.4.09,4.8.11,7.2,0,8.05,3,12,10.53,14.61a67.55,67.55,0,0,1,6.54,3,56.23,56.23,0,0,1-7,.92C100.33,205.94,88.89,205.89,77.45,205.89Zm23.32-123.1c0,11.51,0,23,0,34.54,0,3,1.14,3.86,4,3.18,8.22-2,14.54-6.43,18.59-13.93,5-9.28,5.66-19.25,4.18-29.4-2.1-14.33-7.93-26.13-22.56-31.62-3.05-1.14-4.23-.44-4.2,2.92C100.83,59.92,100.77,71.35,100.77,82.79Zm55.28,4.47c-.21-11.26-2-21-7.56-29.72-3.75-5.83-8.75-10.15-15.64-11.9a9.36,9.36,0,0,0-2.31,0,13.79,13.79,0,0,0,1.17,1.88c1.85,2.09,3.87,4.05,5.64,6.21,11,13.45,16,28.41,8.43,45-3.26,7.15-9.12,13.12-13.78,19.64a22.53,22.53,0,0,0-1.15,2c.8.17,1.74.71,2.39.46,3.39-1.3,7.19-2.18,10-4.32C153.07,108.81,155.67,97.9,156.05,87.26Zm-74.46.64c0-8.71.28-17.44-.12-26.14C81.26,57.14,79.92,52.57,79,48a8.09,8.09,0,0,0-1.55-2.44,10.38,10.38,0,0,0-1.06,2.79c-.81,10.11-1.91,20.22-2.18,30.35-.36,13.26-.07,26.54,0,39.81,0,3.06,2.19,4,4.57,3.23a4.93,4.93,0,0,0,2.74-3.62C81.68,108.06,81.58,98,81.59,87.9Zm1,60.43-.44-.05c-.33-4.94-.45-9.9-1.14-14.79-.18-1.26-2.31-3.28-3.27-3.13-1.37.22-3.52,2-3.57,3.26-.54,13.78-1.08,27.58-.91,41.37.08,6.08,1.74,12.14,2.82,18.18.17,1,1.09,1.8,1.67,2.69A10,10,0,0,0,79.05,193C80.29,178.1,81.44,163.22,82.62,148.33Z"/><path class="cls-1" d="M569.72,187.27c0-5.12-.11-10.25.12-15.36a3.47,3.47,0,0,1,2.39-2.41c3.67,0,8.16-.62,10.74,1.23,2.37,1.69,2.64,6.28,3.91,9.57,1,2.6,1.66,5.56,3.35,7.63s4.54,4.81,7,5c9.87.79,18.94-1.72,25.63-9.67,4.91-5.84,5.51-12.52,3.23-19.66-4.11-12.81-14.22-19.8-25-26.29s-22.29-12-31.71-20C553.12,103.33,546,85,553.17,65.22,560,46.53,578.9,33,599.35,33.24c9.22.13,18.41,1.87,27.63,2.53,2.61.18,5.33-.76,7.95-1.39,1.36-.32,2.57-1.41,3.93-1.61,7.75-1.15,9.09.07,9.09,7.88,0,7.44.15,14.89-.11,22.32-.1,3,.14,6.76-4.25,7.54-6.74,1.19-8.5.28-10.76-4.9-1.56-3.58-3.43-7-5.08-10.58-2.13-4.59-5.72-6-10.58-5.52-21.82,2.35-30.39,21.28-18.65,40.6,5.63,9.24,14.33,14.24,23.32,19.3,11.33,6.37,23.11,12.27,33.39,20.09,18.64,14.17,23,38.1,11.43,55.77-10,15.35-25,23.2-42.59,23.61-17.42.41-34.9-1.91-52.34-3.19-.73-.06-1.89-1.67-1.92-2.59C569.63,197.83,569.72,192.55,569.72,187.27ZM566.88,78c.48,8.38,3.44,16.1,10.57,21.75,1.46,1.17,3.39,1.75,5.1,2.6a49.75,49.75,0,0,0-1.33-5.18c-2.86-7.74-6.16-15.47-5-23.94,2.09-15,11.46-23.92,25-29.17a49.46,49.46,0,0,0,4.47-2.28c-1.9-.31-3.85-1-5.71-.85C583,42.53,566.83,60.46,566.88,78Zm50,122.3a15.07,15.07,0,0,0,2.82.65c18.63-.33,37-16.73,34.92-35.63-1-9.14-4.88-16.67-13-21.54a6.69,6.69,0,0,0-2.16-.44,8.37,8.37,0,0,0,.29,2c.93,2.3,2,4.55,3,6.83,5.3,12.39,5.43,24.29-4.53,34.48-3.62,3.7-8.33,6.37-12.71,9.25C623,197.56,620.27,198.62,616.88,200.32Z"/></g></g></svg>