<svg id="call_to_action" data-name="call to action" xmlns="http://www.w3.org/2000/svg" viewBox="0 0 348.8 149.41"><defs><style>.cls-1{fill:#fff;}</style></defs><title>call</title><g id="call_to_action-2" data-name="call to action"><rect class="cls-1" x="48.38" y="324.46" width="350.5" height="47.49" transform="translate(-142.53 -191.4) rotate(-17.27)"/></g><path d="M84.41,401.08l7.87-2.45,0.92,3L82.1,405,74,379.13l3.23-1Z" transform="translate(-49.24 -273.5)"/><path d="M98.46,400l-3.23,1L87.17,375l3.23-1Z" transform="translate(-49.24 -273.5)"/><path d="M102.39,380l-0.07,0,2.3,18.06-3.33,1-3.11-28.66,15.25,17.65L116,364.88l13.69,25.37-3.33,1L118,375.11l-0.07,0-2.27,20.08Z" transform="translate(-49.24 -273.5)"/><path d="M135.69,388.38l-3.23,1-8.06-25.92,3.23-1Z" transform="translate(-49.24 -273.5)"/><path d="M147.52,384.7l-3.23,1-7.14-23L131,364.66l-0.92-3,15.54-4.83,0.92,3-6.15,1.91Z" transform="translate(-49.24 -273.5)"/><path d="M148.16,356.08l13.92-4.33,0.92,3L152.31,358l2.25,7.25,10.38-3.23,0.92,3-10.38,3.23,3,9.8,10.69-3.32,0.92,3L156.22,382Z" transform="translate(-49.24 -273.5)"/><path d="M165.79,350.6l5.36-1.67c7.94-2.47,15.84-.33,18.53,8.3,2.75,8.83-2.39,15.1-10.57,17.65l-5.26,1.64Zm10.37,22,1.13-.35c6.6-2.05,11.54-6.3,9.2-13.83s-8.82-8.23-15.42-6.18l-1.13.35Z" transform="translate(-49.24 -273.5)"/><path d="M213.9,364.06l-3.23,1-7.14-23L197.38,344l-0.92-3L212,336.23l0.92,3-6.15,1.91Z" transform="translate(-49.24 -273.5)"/><path d="M225.72,360.39l-3.23,1-8.06-25.92,3.23-1Z" transform="translate(-49.24 -273.5)"/><path d="M229.65,340.4l-0.07,0,2.3,18.06-3.33,1-3.11-28.66,15.25,17.65,2.55-23.19,13.69,25.37-3.33,1-8.35-16.18-0.07,0-2.28,20.08Z" transform="translate(-49.24 -273.5)"/><path d="M251.77,323.87l13.92-4.33,0.92,3-10.69,3.32,2.26,7.25,10.38-3.23,0.92,3L259.09,336l3,9.8,10.69-3.32,0.92,3-13.92,4.33Z" transform="translate(-49.24 -273.5)"/><path d="M309,320.29a14.22,14.22,0,0,1-27.15,8.44A14.22,14.22,0,0,1,309,320.29Zm-3.23,1a10.84,10.84,0,1,0-20.69,6.43A10.84,10.84,0,1,0,305.74,321.3Z" transform="translate(-49.24 -273.5)"/><path d="M312.19,308.32l2.27,7.29,9-2.8,0.92,3-9,2.8,4,12.72-3.23,1L308,306.37l12.55-3.9,0.92,3Z" transform="translate(-49.24 -273.5)"/><path d="M328.49,303.26l2.27,7.29,9-2.8,0.92,3-9,2.8,4,12.72-3.23,1-8.06-25.92,12.55-3.9,0.92,3Z" transform="translate(-49.24 -273.5)"/><path d="M340.67,296.23l13.92-4.33,0.92,3-10.69,3.32,2.25,7.25,10.38-3.23,0.92,3L348,308.39l3,9.8,10.69-3.32,0.92,3-13.92,4.33Z" transform="translate(-49.24 -273.5)"/><path d="M382.75,311.56l-3.92,1.22-11-8.59-1.34.42,3.41,11-3.23,1-8.06-25.92,3.92-1.22c2.3-.72,4.79-1.45,7.21-0.92a7.51,7.51,0,0,1,5.33,5.13,7.39,7.39,0,0,1-4,9.19Zm-17.13-9.64,1-.32c3.3-1,6.68-2.76,5.4-6.88s-5.29-3.44-8.49-2.45l-0.86.27Z" transform="translate(-49.24 -273.5)"/></svg>