<svg id="heaven" xmlns="http://www.w3.org/2000/svg" viewBox="0 0 205.74 46.72"><defs><style>.cls-1{fill:#fff;}</style></defs><title>heaven_txt</title><path class="cls-1" d="M118.9,106.68V89.2h8.65v44.36H118.9V113.74h-16v19.83H94.25V89.2h8.65v17.47h16Z" transform="translate(-94.25 -88.03)"/><path class="cls-1" d="M142.55,96.74v9.77h13.77V114H142.55v12h14.3v7.53H133.9V89.2h22.95v7.53h-14.3Z" transform="translate(-94.25 -88.03)"/><path class="cls-1" d="M171.68,124.21L168,133.57h-9.12L176.21,88h6.71l16.83,45.54H190.5l-3.41-9.35H171.68ZM179.15,101H179l-4.88,16.12h10.53Z" transform="translate(-94.25 -88.03)"/><path class="cls-1" d="M211.27,119.09h0.12l9.88-29.89h9.3l-17.24,45.54h-5.06L191.33,89.2h9.3Z" transform="translate(-94.25 -88.03)"/><path class="cls-1" d="M241.57,96.74v9.77h13.77V114H241.57v12h14.3v7.53H232.92V89.2h22.95v7.53h-14.3Z" transform="translate(-94.25 -88.03)"/><path class="cls-1" d="M261.63,88h6.24l23.36,31h0.12V89.2H300v45.25h-6.24l-23.36-31h-0.12v30.12h-8.65V88Z" transform="translate(-94.25 -88.03)"/></svg>