<svg id="moon" xmlns="http://www.w3.org/2000/svg" viewBox="0 0 185.62 46.72"><defs><style>.cls-1{fill:#fff;}</style></defs><title>moon_txt</title><path class="cls-1" d="M136.7,161.13h-0.12l-10.06,28.12h-3l-9.71-28.12H113.7l-3.94,27.54H101l7.47-45.54h6.12l10.94,29.24,10.47-29.24h6.24l6.65,45.54h-8.71Z" transform="translate(-101.05 -143.13)"/><path class="cls-1" d="M173.77,189.85c-13.53,0-21.95-10.36-21.95-23.42s8.71-23.3,21.95-23.3,21.95,10.12,21.95,23.3S187.3,189.85,173.77,189.85Zm0-38.19c-8.18,0-13,7.24-13,14.42,0,6.83,3.41,15.24,13,15.24s13-8.41,13-15.24C186.77,158.9,181.94,151.66,173.77,151.66Z" transform="translate(-101.05 -143.13)"/><path class="cls-1" d="M221,189.85c-13.53,0-21.95-10.36-21.95-23.42s8.71-23.3,21.95-23.3,21.95,10.12,21.95,23.3S234.48,189.85,221,189.85Zm0-38.19c-8.18,0-13,7.24-13,14.42,0,6.83,3.41,15.24,13,15.24s13-8.41,13-15.24C234,158.9,229.13,151.66,221,151.66Z" transform="translate(-101.05 -143.13)"/><path class="cls-1" d="M248.31,143.13h6.24l23.36,31H278V144.31h8.65v45.25h-6.24l-23.36-31H257v30.13h-8.65V143.13Z" transform="translate(-101.05 -143.13)"/></svg>