<svg id="perfume" xmlns="http://www.w3.org/2000/svg" viewBox="0 0 349.88 41.32"><defs><style>.cls-1{fill:#fff;}</style></defs><title>sky_txt</title><path class="cls-1" d="M26.63,464.55h0.07a6.9,6.9,0,0,1,5.87-3.31c4.86,0,7.92,4.21,7.92,8.82,0,4.82-2.88,9.11-8.06,9.11a7,7,0,0,1-5.72-3.2H26.63v12.27H23.39V461.74h3.24v2.81Zm10.62,5.62c0-3.28-2-6-5.47-6s-5.33,2.92-5.33,6,1.91,6.12,5.33,6.12S37.25,473.48,37.25,470.17Z" transform="translate(-23.39 -446.91)"/><path class="cls-1" d="M49.92,470.71c0,2.88,2,5.58,5.08,5.58,2.48,0,3.82-1.26,5-3.28l2.74,1.55A8.77,8.77,0,0,1,55,479.17c-5.15,0-8.28-3.89-8.28-8.85,0-5.18,2.77-9.07,8.21-9.07s7.88,4,7.88,9v0.5H49.92Zm9.61-2.45A4.55,4.55,0,0,0,54.89,464a4.82,4.82,0,0,0-4.79,4.21h9.43Z" transform="translate(-23.39 -446.91)"/><path class="cls-1" d="M73.32,464.48h0.11A4.85,4.85,0,0,1,78,461.24a5,5,0,0,1,2.66.83l-1.48,3a2.83,2.83,0,0,0-2-.68c-3.49,0-3.92,3.24-3.92,6v8.28H70.08V461.74h3.24v2.74Z" transform="translate(-23.39 -446.91)"/><path class="cls-1" d="M95.9,450.62a6,6,0,0,0-2.16-.68c-2.3,0-2.3,2.92-2.3,4.57v7.23H95.9v3H91.43v13.82H88.19V464.77H86.72v-3h1.48v-8.21c0-3.67,1.26-6.62,5.44-6.62a6.06,6.06,0,0,1,2.27.43v3.28Z" transform="translate(-23.39 -446.91)"/><path class="cls-1" d="M104.86,461.74v9.32c0,2.7.68,5.08,3.89,5.08s3.89-2.37,3.89-5.08v-9.32h3.24v9.68c0,4.61-2.16,7.74-7.13,7.74s-7.13-3.13-7.13-7.74v-9.68h3.24Z" transform="translate(-23.39 -446.91)"/><path class="cls-1" d="M127.65,463.87h0.07a5.5,5.5,0,0,1,4.46-2.63,5.39,5.39,0,0,1,4.86,3,6.08,6.08,0,0,1,5.18-3c4.43,0,5.58,3.46,5.58,7.27v10.08h-3.24v-9.54c0-2.16-.29-4.93-3.13-4.93-3.46,0-3.71,3.6-3.71,6.19v8.28h-3.24v-8.93c0-2.2-.11-5.54-3.1-5.54-3.46,0-3.74,3.56-3.74,6.19v8.28h-3.24V461.74h3.24v2.12Z" transform="translate(-23.39 -446.91)"/><path class="cls-1" d="M158.39,470.71c0,2.88,2,5.58,5.08,5.58,2.48,0,3.82-1.26,5-3.28l2.74,1.55a8.77,8.77,0,0,1-7.81,4.61c-5.15,0-8.28-3.89-8.28-8.85,0-5.18,2.77-9.07,8.21-9.07s7.88,4,7.88,9v0.5H158.39Zm9.61-2.45a4.55,4.55,0,0,0-4.64-4.21,4.82,4.82,0,0,0-4.79,4.21H168Z" transform="translate(-23.39 -446.91)"/><path class="cls-1" d="M209.54,470.2a9,9,0,1,1-9-9A8.86,8.86,0,0,1,209.54,470.2Zm-14.76,0a5.76,5.76,0,1,0,5.76-5.87A5.85,5.85,0,0,0,194.79,470.2Z" transform="translate(-23.39 -446.91)"/><path class="cls-1" d="M225.17,450.62a6,6,0,0,0-2.16-.68c-2.3,0-2.3,2.92-2.3,4.57v7.23h4.46v3h-4.46v13.82h-3.24V464.77H216v-3h1.48v-8.21c0-3.67,1.26-6.62,5.44-6.62a6.06,6.06,0,0,1,2.27.43v3.28Z" transform="translate(-23.39 -446.91)"/><path class="cls-1" d="M249.47,478.59h-3.24V464.77h-1.76v-3h1.76V455.3h3.24v6.44h3.17v3h-3.17v13.82Z" transform="translate(-23.39 -446.91)"/><path class="cls-1" d="M262,447.35V464H262a5.75,5.75,0,0,1,5.08-2.77c4.75,0,6,3.2,6,7.31v10h-3.24v-9.65c0-2.88-.4-4.82-3.71-4.82-4.18,0-4.18,3.67-4.18,6.73v7.74h-3.24V447.35H262Z" transform="translate(-23.39 -446.91)"/><path class="cls-1" d="M283.81,470.71c0,2.88,2,5.58,5.08,5.58,2.48,0,3.82-1.26,5-3.28l2.74,1.55a8.77,8.77,0,0,1-7.81,4.61c-5.15,0-8.28-3.89-8.28-8.85,0-5.18,2.77-9.07,8.21-9.07s7.88,4,7.88,9v0.5H283.81Zm9.61-2.45a4.55,4.55,0,0,0-4.64-4.21,4.82,4.82,0,0,0-4.79,4.21h9.43Z" transform="translate(-23.39 -446.91)"/><path class="cls-1" d="M325.25,465.6a2.49,2.49,0,0,0-2.16-1.48,1.75,1.75,0,0,0-1.76,1.66c0,1.48,1.94,2.13,3.92,3s3.89,2.12,3.89,4.79a5.65,5.65,0,0,1-5.79,5.58,6.21,6.21,0,0,1-5.83-3.78l2.77-1.26c0.68,1.26,1.51,2.16,3.06,2.16a2.42,2.42,0,0,0,2.56-2.38,2,2,0,0,0-1.19-1.84l-3.17-1.69c-1.87-1-3.24-1.94-3.24-4.25a4.92,4.92,0,0,1,5-4.9,5,5,0,0,1,4.61,3Z" transform="translate(-23.39 -446.91)"/><path class="cls-1" d="M340.08,468.08l6.33-6.34h4.28l-7.2,7,7.92,9.86h-4.21l-6-7.67L340.08,472v6.55h-3.24V447.35h3.24v20.73Z" transform="translate(-23.39 -446.91)"/><path class="cls-1" d="M354.88,461.74h3.78l5.69,10.69,5.29-10.69h3.64l-13.64,26.49H356l6.62-12.53Z" transform="translate(-23.39 -446.91)"/></svg>