<svg id="stars" xmlns="http://www.w3.org/2000/svg" viewBox="0 0 167.74 46.72"><defs><style>.cls-1{fill:#fff;}</style></defs><title>stars_txt</title><path class="cls-1" d="M135.94,44.64A8,8,0,0,0,129.29,41a5.28,5.28,0,0,0-5.41,5c0,7.47,17.59,4.35,17.59,19.24,0,8.88-5.53,15.18-14.59,15.18-6.12,0-10.59-3.53-13.65-8.65l5.59-5.47c1.18,3.41,4.3,6.47,8,6.47,3.53,0,5.71-3,5.71-6.41,0-4.59-4.24-5.88-7.71-7.24-5.71-2.35-9.88-5.24-9.88-12.12,0-7.35,5.47-13.3,12.94-13.3,3.94,0,9.41,1.94,12.12,4.94Z" transform="translate(-113.22 -33.69)"/><path class="cls-1" d="M163.94,79.23h-8.65V42.4h-8.94V34.87h26.54V42.4h-8.94V79.23Z" transform="translate(-113.22 -33.69)"/><path class="cls-1" d="M183.94,69.88l-3.65,9.36h-9.12l17.3-45.54h6.71L212,79.23h-9.24l-3.41-9.36H183.94Zm7.47-23.18H191.3l-4.88,16.12h10.53Z" transform="translate(-113.22 -33.69)"/><path class="cls-1" d="M248.19,79.23H237.72L227,61.35h-0.12V79.23h-8.65V34.87h11.71c8.77,0,14.83,3.88,14.83,13.36,0,5.65-3.12,11.3-9.06,12.3ZM226.83,55.28H228c4.77,0,8.12-1.41,8.12-6.83s-3.47-6.53-8.06-6.53h-1.18V55.28Z" transform="translate(-113.22 -33.69)"/><path class="cls-1" d="M275.43,44.64A8,8,0,0,0,268.78,41a5.28,5.28,0,0,0-5.41,5c0,7.47,17.59,4.35,17.59,19.24,0,8.88-5.53,15.18-14.59,15.18-6.12,0-10.59-3.53-13.65-8.65l5.59-5.47c1.18,3.41,4.3,6.47,8,6.47,3.53,0,5.71-3,5.71-6.41,0-4.59-4.24-5.88-7.71-7.24-5.71-2.35-9.88-5.24-9.88-12.12,0-7.35,5.47-13.3,12.94-13.3,3.94,0,9.41,1.94,12.12,4.94Z" transform="translate(-113.22 -33.69)"/></svg>